<?xml version="1.0" encoding="utf-8"?>
<!-- Generator: Adobe Illustrator 22.0.0, SVG Export Plug-In . SVG Version: 6.00 Build 0)  -->
<svg version="1.1" id="图层_1" xmlns="http://www.w3.org/2000/svg" xmlns:xlink="http://www.w3.org/1999/xlink" x="0px" y="0px"
	 width="159.6px" height="40px" viewBox="0 0 159.6 40" enable-background="new 0 0 159.6 40" xml:space="preserve">
<g>
	<path fill-rule="evenodd" clip-rule="evenodd" fill="#FFFFFF" d="M158.8,17.9l-14,0L137,39.2h-10.1l8-21.4l-20.9,0
		c-1.7,0-2.5,0.2-3.2,1.2l-2,5.3l-0.3,0.6c-0.3,0.8,0,1.9,1.5,1.9h9.3c4,0,5.8,2.5,4.6,5.7l-0.7,1.8c-1.2,3.3-4.6,4.7-10.2,4.7H68.3
		l3.3-9.2l-6.9-12.1h-2.4l-7.7,21.3H44.5l7.7-21.3l-13.8,0l0.7-2h33.1l5.8,11l14-11h7.7L80.9,30.2l-2.4,7.1h31.3
		c1.7,0,2.7-0.4,3-1.4l1.5-4.5c0.7-1.9-0.8-2.4-2.3-2.4l-10.7,0c-2.2-0.4-3.2-2.3-2.3-4.8l1.2-3.3c1-3.3,4.3-5,9.9-5
		c22,0,27.3,0,49.3,0L158.8,17.9z"/>
	<g>
		<rect x="25.3" y="33.1" fill-rule="evenodd" clip-rule="evenodd" fill="#FFFFFF" width="1.6" height="0.7"/>
		<rect x="25.3" y="34.3" fill-rule="evenodd" clip-rule="evenodd" fill="#FFFFFF" width="1.6" height="0.7"/>
		<rect x="25.3" y="35.5" fill-rule="evenodd" clip-rule="evenodd" fill="#FFFFFF" width="1.6" height="0.8"/>
		<path fill-rule="evenodd" clip-rule="evenodd" fill="#FFFFFF" d="M30.8,0H2.3C1,0,0,1,0,2.3v35.5C0,39,1,40,2.3,40h28.5
			c1.2,0,2.3-1,2.3-2.3V2.3C33.1,1,32.1,0,30.8,0z M9.8,37.1H9.1H5.8H5.1V34h4.7V37.1z M10,33.7c-0.1-0.2-0.3-0.4-0.4-0.6
			c-4,0.2-3.6,0.2-4.8,0.3c0-0.1-0.1-0.5-0.2-0.7c0.3-0.2,0.4-0.3,0.6-0.5c0.3-0.2,1-1,1.6-1.9l0.7,0.3c-0.5,0.7-1.1,1.4-1.7,2
			l3.4-0.1c-0.3-0.3-0.7-0.7-1-1l0.5-0.4c0.6,0.6,1.5,1.6,1.9,2.1L10,33.7z M22.3,36.4c0.1-0.1,0.3-0.3,0.4-0.4l0-2.7h-0.9v-0.6h1.6
			v2.9L24,35c0.1,0.2,0.2,0.4,0.3,0.6c-1,0.9-1.4,1.2-1.6,1.4C22.5,36.7,22.4,36.6,22.3,36.4z M22,31l0.4-0.4
			c0.4,0.3,0.9,0.8,1.1,1.1l-0.5,0.5C22.9,31.9,22.4,31.4,22,31z M25.5,30.6l0.6-0.2c0.2,0.3,0.4,0.6,0.5,0.8h1.9v1.4h-0.7v-0.8
			h-3.2v0.8h-0.7v-1.4h1.9C25.7,31,25.6,30.8,25.5,30.6z M28.5,36.9h-4.5v-0.6h0.8v-3.7l0-0.1h2.9v3.8h0.9V36.9z M29.6,15.7
			c0,7.2-5.9,13.1-13.1,13.1c-7.2,0-13.1-5.8-13.1-13.1c0-7.2,5.9-13.1,13.1-13.1c4.5,0,8.5,2.3,10.8,5.8l0.3-0.1l3.1-1.7l-2.2,2.7
			l-0.4,0.5C29.1,11.5,29.6,13.5,29.6,15.7z"/>
		<path fill-rule="evenodd" clip-rule="evenodd" fill="#FFFFFF" d="M19.2,15.2l5.8-4.9l-0.4-0.4L26,9.1c-2.2-3.1-5.7-5-9.5-5
			c-3.9,0-7.5,2-9.6,5.2l7,5.9H19.2z"/>
		<path fill-rule="evenodd" clip-rule="evenodd" fill="#FFFFFF" d="M5.1,15.2h6.5l-5.4-4.5C5.5,12.1,5.1,13.6,5.1,15.2L5.1,15.2z"/>
		<path fill-rule="evenodd" clip-rule="evenodd" fill="#FFFFFF" d="M13.9,26.8v-8.1H5.5C6.6,22.7,9.9,25.9,13.9,26.8L13.9,26.8z"/>
		<path fill-rule="evenodd" clip-rule="evenodd" fill="#FFFFFF" d="M19.2,26.8c4.1-1,7.3-4.1,8.4-8.1h-8.4V26.8z"/>
		<path fill-rule="evenodd" clip-rule="evenodd" fill="#FFFFFF" d="M28,15.2h-6.5l4.4-3.7l0.3,0.4l0.8-0.9
			C27.6,12.3,28,13.8,28,15.2L28,15.2z"/>
		<rect x="5.8" y="34.7" fill="#FFFFFF" width="3.3" height="1.8"/>
		<rect x="5.8" y="34.7" fill-rule="evenodd" clip-rule="evenodd" fill="#FFFFFF" width="3.3" height="1.8"/>
	</g>
</g>
</svg>
